<?xml version="1.0" ?><!-- Uploaded to: SVG Repo, www.svgrepo.com, Generator: SVG Repo Mixer Tools -->
<svg fill="#000000" width="800px" height="800px" viewBox="0 0 80 80" data-name="Layer 1" id="Layer_1" xmlns="http://www.w3.org/2000/svg"><title/><path d="M78.91,51.58l-12-26A1,1,0,0,0,66,25H51V6a1,1,0,0,0-1-1H2A1,1,0,0,0,1,6V66a1,1,0,0,0,1,1H7.06a9,9,0,0,0,17.88,0H55.06a9,9,0,0,0,17.88,0H78a1,1,0,0,0,1-1V52a.9.9,0,0,0-.09-.4ZM51,27H65.36L76.44,51H51ZM16,73a7,7,0,1,1,7-7A7,7,0,0,1,16,73Zm48,0a7,7,0,1,1,7-7A7,7,0,0,1,64,73Zm13-8H72.94a9,9,0,0,0-17.88,0H24.94A9,9,0,0,0,7.06,65H3V7H49V52a1,1,0,0,0,1,1H77Z"/></svg>